<mxfile host="app.diagrams.net" modified="2023-10-09T09:32:53.780Z" agent="Mozilla/5.0 (Windows NT 10.0; Win64; x64) AppleWebKit/537.36 (KHTML, like Gecko) Chrome/117.0.0.0 Safari/537.36" etag="YPLPaslDA5K-Z55-iQEO" version="22.0.4" type="device">
  <diagram name="Страница — 1" id="PsCO5aKUqOILO00XPxZj">
    <mxGraphModel dx="3999" dy="1044" grid="1" gridSize="10" guides="1" tooltips="1" connect="1" arrows="1" fold="1" page="1" pageScale="1" pageWidth="827" pageHeight="1169" math="0" shadow="0">
      <root>
        <mxCell id="0" />
        <mxCell id="1" parent="0" />
        <mxCell id="oZD-xSz8pJNhGRxbrhzZ-47" value="&lt;font style=&quot;font-size: 16px;&quot;&gt;Categories&lt;/font&gt;" style="swimlane;childLayout=stackLayout;horizontal=1;startSize=50;horizontalStack=0;rounded=1;fontSize=14;fontStyle=0;strokeWidth=2;resizeParent=0;resizeLast=1;shadow=0;dashed=0;align=center;arcSize=4;whiteSpace=wrap;html=1;" vertex="1" parent="1">
          <mxGeometry x="-1580" y="900" width="220" height="100" as="geometry" />
        </mxCell>
        <mxCell id="oZD-xSz8pJNhGRxbrhzZ-48" value="&lt;font style=&quot;font-size: 14px;&quot;&gt;&lt;font style=&quot;&quot;&gt;id: INT [PK, UNIQUE]&lt;br&gt;&lt;/font&gt;title: VARCHAR(50) [NOT NULL]&lt;br&gt;&lt;/font&gt;" style="align=left;strokeColor=none;fillColor=none;spacingLeft=4;fontSize=12;verticalAlign=top;resizable=0;rotatable=0;part=1;html=1;" vertex="1" parent="oZD-xSz8pJNhGRxbrhzZ-47">
          <mxGeometry y="50" width="220" height="50" as="geometry" />
        </mxCell>
        <mxCell id="oZD-xSz8pJNhGRxbrhzZ-49" value="&lt;font style=&quot;font-size: 16px;&quot;&gt;Users&lt;/font&gt;" style="swimlane;childLayout=stackLayout;horizontal=1;startSize=50;horizontalStack=0;rounded=1;fontSize=14;fontStyle=0;strokeWidth=2;resizeParent=0;resizeLast=1;shadow=0;dashed=0;align=center;arcSize=4;whiteSpace=wrap;html=1;" vertex="1" parent="1">
          <mxGeometry x="988.5" y="880" width="323" height="130" as="geometry" />
        </mxCell>
        <mxCell id="oZD-xSz8pJNhGRxbrhzZ-50" value="&lt;font style=&quot;font-size: 14px;&quot;&gt;id: INT [PK, UNIQUE]&lt;br&gt;nickname: VARCHAR(25) [NOT NULL, UNIQUE]&lt;br&gt;date_birth: DATE [NOT NULL]&lt;br&gt;account_id: INT [FK, NOT NULL]&lt;/font&gt;" style="align=left;strokeColor=none;fillColor=none;spacingLeft=4;fontSize=12;verticalAlign=top;resizable=0;rotatable=0;part=1;html=1;" vertex="1" parent="oZD-xSz8pJNhGRxbrhzZ-49">
          <mxGeometry y="50" width="323" height="80" as="geometry" />
        </mxCell>
        <mxCell id="oZD-xSz8pJNhGRxbrhzZ-51" value="&lt;font style=&quot;font-size: 16px;&quot;&gt;Moderators&lt;/font&gt;" style="swimlane;childLayout=stackLayout;horizontal=1;startSize=50;horizontalStack=0;rounded=1;fontSize=14;fontStyle=0;strokeWidth=2;resizeParent=0;resizeLast=1;shadow=0;dashed=0;align=center;arcSize=4;whiteSpace=wrap;html=1;" vertex="1" parent="1">
          <mxGeometry x="990" y="710" width="320" height="130" as="geometry" />
        </mxCell>
        <mxCell id="oZD-xSz8pJNhGRxbrhzZ-52" value="&lt;font style=&quot;font-size: 14px;&quot;&gt;id: INT [PK, UNIQUE]&lt;br&gt;nickname: VARCHAR(25) [NOT NULL, UNIQUE]&lt;br style=&quot;border-color: var(--border-color);&quot;&gt;date_birth: DATE [NOT NULL]&lt;br style=&quot;border-color: var(--border-color);&quot;&gt;account_id: INT [FK, NOT NULL]&lt;/font&gt;&lt;span style=&quot;font-size: 14px;&quot;&gt;&lt;br&gt;&lt;/span&gt;" style="align=left;strokeColor=none;fillColor=none;spacingLeft=4;fontSize=12;verticalAlign=top;resizable=0;rotatable=0;part=1;html=1;" vertex="1" parent="oZD-xSz8pJNhGRxbrhzZ-51">
          <mxGeometry y="50" width="320" height="80" as="geometry" />
        </mxCell>
        <mxCell id="oZD-xSz8pJNhGRxbrhzZ-53" value="&lt;font style=&quot;font-size: 16px;&quot;&gt;Accounts&lt;/font&gt;" style="swimlane;childLayout=stackLayout;horizontal=1;startSize=50;horizontalStack=0;rounded=1;fontSize=14;fontStyle=0;strokeWidth=2;resizeParent=0;resizeLast=1;shadow=0;dashed=0;align=center;arcSize=4;whiteSpace=wrap;html=1;" vertex="1" parent="1">
          <mxGeometry x="523" y="790" width="300" height="150" as="geometry" />
        </mxCell>
        <mxCell id="oZD-xSz8pJNhGRxbrhzZ-54" value="&lt;font style=&quot;font-size: 14px;&quot;&gt;id: INT [PK, UNIQUE]&lt;br style=&quot;border-color: var(--border-color);&quot;&gt;email: VARCHAR(100) [NOT NULL, UNIQUE]&lt;br style=&quot;border-color: var(--border-color);&quot;&gt;password: VARCHAR(15) [NOT NULL]&lt;br style=&quot;border-color: var(--border-color);&quot;&gt;account_id: INT [FK, NOT NULL]&lt;br&gt;role_id: INT [FK, NOT NULL]&lt;/font&gt;" style="align=left;strokeColor=none;fillColor=none;spacingLeft=4;fontSize=12;verticalAlign=top;resizable=0;rotatable=0;part=1;html=1;" vertex="1" parent="oZD-xSz8pJNhGRxbrhzZ-53">
          <mxGeometry y="50" width="300" height="100" as="geometry" />
        </mxCell>
        <mxCell id="oZD-xSz8pJNhGRxbrhzZ-55" value="&lt;font style=&quot;font-size: 16px;&quot;&gt;News&lt;/font&gt;" style="swimlane;childLayout=stackLayout;horizontal=1;startSize=50;horizontalStack=0;rounded=1;fontSize=14;fontStyle=0;strokeWidth=2;resizeParent=0;resizeLast=1;shadow=0;dashed=0;align=center;arcSize=4;whiteSpace=wrap;html=1;" vertex="1" parent="1">
          <mxGeometry x="-320" y="510" width="240" height="170" as="geometry" />
        </mxCell>
        <mxCell id="oZD-xSz8pJNhGRxbrhzZ-56" value="&lt;font style=&quot;font-size: 14px;&quot;&gt;id: INT [PK, UNIQUE]&lt;br&gt;category_id: INT [FK, NULL]&lt;br&gt;title: VARCHAR(50) [NOT NULL]&lt;br&gt;upload_date: DATE [NOT NULL]&lt;br&gt;description: VARCHAR(100) [NULL]&lt;br&gt;content: CLOB [NOT NULL]&lt;/font&gt;" style="align=left;strokeColor=none;fillColor=none;spacingLeft=4;fontSize=12;verticalAlign=top;resizable=0;rotatable=0;part=1;html=1;" vertex="1" parent="oZD-xSz8pJNhGRxbrhzZ-55">
          <mxGeometry y="50" width="240" height="120" as="geometry" />
        </mxCell>
        <mxCell id="oZD-xSz8pJNhGRxbrhzZ-58" value="&lt;font style=&quot;font-size: 16px;&quot;&gt;Articles&lt;/font&gt;" style="swimlane;childLayout=stackLayout;horizontal=1;startSize=50;horizontalStack=0;rounded=1;fontSize=14;fontStyle=0;strokeWidth=2;resizeParent=0;resizeLast=1;shadow=0;dashed=0;align=center;arcSize=4;whiteSpace=wrap;html=1;" vertex="1" parent="1">
          <mxGeometry x="-320" y="830" width="240" height="170" as="geometry" />
        </mxCell>
        <mxCell id="oZD-xSz8pJNhGRxbrhzZ-59" value="&lt;font style=&quot;font-size: 14px;&quot;&gt;id: INT [PK, UNIQUE]&lt;br style=&quot;border-color: var(--border-color);&quot;&gt;category_id: INT [FK, NULL]&lt;br style=&quot;border-color: var(--border-color);&quot;&gt;title: VARCHAR(50) [NOT NULL]&lt;br style=&quot;border-color: var(--border-color);&quot;&gt;upload_date: DATE [NOT NULL]&lt;br style=&quot;border-color: var(--border-color);&quot;&gt;description: VARCHAR(100) [NULL]&lt;br style=&quot;border-color: var(--border-color);&quot;&gt;content: CLOB [NOT NULL]&lt;/font&gt;" style="align=left;strokeColor=none;fillColor=none;spacingLeft=4;fontSize=12;verticalAlign=top;resizable=0;rotatable=0;part=1;html=1;" vertex="1" parent="oZD-xSz8pJNhGRxbrhzZ-58">
          <mxGeometry y="50" width="240" height="120" as="geometry" />
        </mxCell>
        <mxCell id="oZD-xSz8pJNhGRxbrhzZ-60" value="&lt;font style=&quot;font-size: 16px;&quot;&gt;Videos&lt;/font&gt;" style="swimlane;childLayout=stackLayout;horizontal=1;startSize=50;horizontalStack=0;rounded=1;fontSize=14;fontStyle=0;strokeWidth=2;resizeParent=0;resizeLast=1;shadow=0;dashed=0;align=center;arcSize=4;whiteSpace=wrap;html=1;" vertex="1" parent="1">
          <mxGeometry x="-330" y="1190" width="240" height="170" as="geometry" />
        </mxCell>
        <mxCell id="oZD-xSz8pJNhGRxbrhzZ-61" value="&lt;font style=&quot;font-size: 14px;&quot;&gt;id: INT [PK, UNIQUE]&lt;br style=&quot;border-color: var(--border-color);&quot;&gt;category_id: INT [FK, NULL]&lt;br style=&quot;border-color: var(--border-color);&quot;&gt;title: VARCHAR(50) [NOT NULL]&lt;br style=&quot;border-color: var(--border-color);&quot;&gt;upload_date: DATE [NOT NULL]&lt;br style=&quot;border-color: var(--border-color);&quot;&gt;description: VARCHAR(100) [NULL]&lt;br style=&quot;border-color: var(--border-color);&quot;&gt;video_file: BLOB [NOT NULL]&lt;/font&gt;" style="align=left;strokeColor=none;fillColor=none;spacingLeft=4;fontSize=12;verticalAlign=top;resizable=0;rotatable=0;part=1;html=1;" vertex="1" parent="oZD-xSz8pJNhGRxbrhzZ-60">
          <mxGeometry y="50" width="240" height="120" as="geometry" />
        </mxCell>
        <mxCell id="oZD-xSz8pJNhGRxbrhzZ-62" value="&lt;font style=&quot;font-size: 16px;&quot;&gt;Images&lt;/font&gt;" style="swimlane;childLayout=stackLayout;horizontal=1;startSize=50;horizontalStack=0;rounded=1;fontSize=14;fontStyle=0;strokeWidth=2;resizeParent=0;resizeLast=1;shadow=0;dashed=0;align=center;arcSize=4;whiteSpace=wrap;html=1;" vertex="1" parent="1">
          <mxGeometry x="560" y="1260" width="243" height="170" as="geometry" />
        </mxCell>
        <mxCell id="oZD-xSz8pJNhGRxbrhzZ-63" value="&lt;font style=&quot;font-size: 14px;&quot;&gt;id: INT [PK, UNIQUE]&lt;br style=&quot;border-color: var(--border-color);&quot;&gt;category_id: INT [FK, NULL]&lt;br style=&quot;border-color: var(--border-color);&quot;&gt;title: VARCHAR(50) [NOT NULL]&lt;br style=&quot;border-color: var(--border-color);&quot;&gt;upload_date: DATE [NOT NULL]&lt;br style=&quot;border-color: var(--border-color);&quot;&gt;description: VARCHAR(100) [NULL]&lt;br style=&quot;border-color: var(--border-color);&quot;&gt;image_file: BLOB [NOT NULL]&lt;/font&gt;" style="align=left;strokeColor=none;fillColor=none;spacingLeft=4;fontSize=12;verticalAlign=top;resizable=0;rotatable=0;part=1;html=1;" vertex="1" parent="oZD-xSz8pJNhGRxbrhzZ-62">
          <mxGeometry y="50" width="243" height="120" as="geometry" />
        </mxCell>
        <mxCell id="oZD-xSz8pJNhGRxbrhzZ-64" value="&lt;font style=&quot;font-size: 16px;&quot;&gt;Calculators&lt;/font&gt;" style="swimlane;childLayout=stackLayout;horizontal=1;startSize=50;horizontalStack=0;rounded=1;fontSize=14;fontStyle=0;strokeWidth=2;resizeParent=0;resizeLast=1;shadow=0;dashed=0;align=center;arcSize=4;whiteSpace=wrap;html=1;" vertex="1" parent="1">
          <mxGeometry x="553" y="1010" width="240" height="150" as="geometry" />
        </mxCell>
        <mxCell id="oZD-xSz8pJNhGRxbrhzZ-65" value="&lt;font style=&quot;font-size: 14px;&quot;&gt;id: INT [PK, UNIQUE]&lt;br style=&quot;border-color: var(--border-color);&quot;&gt;title: VARCHAR(50) [NOT NULL]&lt;br style=&quot;border-color: var(--border-color);&quot;&gt;upload_date: DATE [NOT NULL]&lt;br style=&quot;border-color: var(--border-color);&quot;&gt;description: VARCHAR(100) [NULL]&lt;br style=&quot;border-color: var(--border-color);&quot;&gt;content: CLOB [NOT NULL]&lt;/font&gt;" style="align=left;strokeColor=none;fillColor=none;spacingLeft=4;fontSize=12;verticalAlign=top;resizable=0;rotatable=0;part=1;html=1;" vertex="1" parent="oZD-xSz8pJNhGRxbrhzZ-64">
          <mxGeometry y="50" width="240" height="100" as="geometry" />
        </mxCell>
        <mxCell id="oZD-xSz8pJNhGRxbrhzZ-66" value="&lt;font style=&quot;font-size: 16px;&quot;&gt;Logs&lt;/font&gt;" style="swimlane;childLayout=stackLayout;horizontal=1;startSize=50;horizontalStack=0;rounded=1;fontSize=14;fontStyle=0;strokeWidth=2;resizeParent=0;resizeLast=1;shadow=0;dashed=0;align=center;arcSize=4;whiteSpace=wrap;html=1;" vertex="1" parent="1">
          <mxGeometry x="70" y="590" width="300" height="150" as="geometry" />
        </mxCell>
        <mxCell id="oZD-xSz8pJNhGRxbrhzZ-67" value="&lt;font style=&quot;font-size: 14px;&quot;&gt;id: INT [PK, UNIQUE]&lt;br&gt;account_id: INT [FK, NOT NULL]&lt;br&gt;type: VARCHAR(50) [NOT NULL]&lt;br&gt;representation: VARCHAR(255) [NOT NULL]&lt;br&gt;date_create: DATE [NOT NULL]&lt;/font&gt;" style="align=left;strokeColor=none;fillColor=none;spacingLeft=4;fontSize=12;verticalAlign=top;resizable=0;rotatable=0;part=1;html=1;" vertex="1" parent="oZD-xSz8pJNhGRxbrhzZ-66">
          <mxGeometry y="50" width="300" height="100" as="geometry" />
        </mxCell>
        <mxCell id="oZD-xSz8pJNhGRxbrhzZ-68" value="&lt;font style=&quot;font-size: 16px;&quot;&gt;Favourites&lt;/font&gt;" style="swimlane;childLayout=stackLayout;horizontal=1;startSize=50;horizontalStack=0;rounded=1;fontSize=14;fontStyle=0;strokeWidth=2;resizeParent=0;resizeLast=1;shadow=0;dashed=0;align=center;arcSize=4;whiteSpace=wrap;html=1;" vertex="1" parent="1">
          <mxGeometry x="110" y="1060" width="220" height="200" as="geometry" />
        </mxCell>
        <mxCell id="oZD-xSz8pJNhGRxbrhzZ-69" value="&lt;font style=&quot;font-size: 14px;&quot;&gt;id: INT [PK, UNIQUE]&lt;br&gt;account_id: INT [FK, NOT NULL]&lt;br&gt;upload_date: DATE [NOT NULL]&lt;br&gt;new_id: INT [FK, NULL]&lt;br&gt;article_id: INT [FK, NULL]&lt;br&gt;image_id: INT [FK, NULL]&lt;br&gt;video_id: INT [FK, NULL]&lt;br&gt;calculator_id: INT [FK, NULL]&lt;/font&gt;" style="align=left;strokeColor=none;fillColor=none;spacingLeft=4;fontSize=12;verticalAlign=top;resizable=0;rotatable=0;part=1;html=1;" vertex="1" parent="oZD-xSz8pJNhGRxbrhzZ-68">
          <mxGeometry y="50" width="220" height="150" as="geometry" />
        </mxCell>
        <mxCell id="oZD-xSz8pJNhGRxbrhzZ-70" value="&lt;font style=&quot;font-size: 16px;&quot;&gt;Roles&lt;/font&gt;" style="swimlane;childLayout=stackLayout;horizontal=1;startSize=50;horizontalStack=0;rounded=1;fontSize=14;fontStyle=0;strokeWidth=2;resizeParent=0;resizeLast=1;shadow=0;dashed=0;align=center;arcSize=4;whiteSpace=wrap;html=1;" vertex="1" parent="1">
          <mxGeometry x="990" y="1090" width="230" height="100" as="geometry" />
        </mxCell>
        <mxCell id="oZD-xSz8pJNhGRxbrhzZ-71" value="&lt;font style=&quot;font-size: 14px;&quot;&gt;id: INT [PK, UNIQUE]&lt;br&gt;title: VARCHAR(100) [NOT NULL]&lt;/font&gt;" style="align=left;strokeColor=none;fillColor=none;spacingLeft=4;fontSize=12;verticalAlign=top;resizable=0;rotatable=0;part=1;html=1;" vertex="1" parent="oZD-xSz8pJNhGRxbrhzZ-70">
          <mxGeometry y="50" width="230" height="50" as="geometry" />
        </mxCell>
        <mxCell id="oZD-xSz8pJNhGRxbrhzZ-72" value="&lt;font style=&quot;font-size: 16px;&quot;&gt;Permissions&lt;/font&gt;" style="swimlane;childLayout=stackLayout;horizontal=1;startSize=50;horizontalStack=0;rounded=1;fontSize=14;fontStyle=0;strokeWidth=2;resizeParent=0;resizeLast=1;shadow=0;dashed=0;align=center;arcSize=4;whiteSpace=wrap;html=1;" vertex="1" parent="1">
          <mxGeometry x="1780" y="1090" width="230" height="100" as="geometry" />
        </mxCell>
        <mxCell id="oZD-xSz8pJNhGRxbrhzZ-73" value="&lt;font style=&quot;font-size: 14px;&quot;&gt;id: INT [PK, UNIQUE]&lt;br style=&quot;border-color: var(--border-color);&quot;&gt;title: VARCHAR(100) [NOT NULL]&lt;/font&gt;" style="align=left;strokeColor=none;fillColor=none;spacingLeft=4;fontSize=12;verticalAlign=top;resizable=0;rotatable=0;part=1;html=1;" vertex="1" parent="oZD-xSz8pJNhGRxbrhzZ-72">
          <mxGeometry y="50" width="230" height="50" as="geometry" />
        </mxCell>
        <mxCell id="oZD-xSz8pJNhGRxbrhzZ-74" value="&lt;font style=&quot;font-size: 16px;&quot;&gt;News_images&lt;/font&gt;" style="swimlane;childLayout=stackLayout;horizontal=1;startSize=50;horizontalStack=0;rounded=1;fontSize=14;fontStyle=0;strokeWidth=2;resizeParent=0;resizeLast=1;shadow=0;dashed=0;align=center;arcSize=4;whiteSpace=wrap;html=1;" vertex="1" parent="1">
          <mxGeometry x="110" y="820" width="240" height="120" as="geometry" />
        </mxCell>
        <mxCell id="oZD-xSz8pJNhGRxbrhzZ-75" value="&lt;font style=&quot;font-size: 14px;&quot;&gt;id: INT [PK, UNIQUE]&lt;br style=&quot;border-color: var(--border-color);&quot;&gt;new_id: INT [FK, NOT NULL]&lt;br&gt;image_id: INT [FK, NOT NULL]&lt;/font&gt;" style="align=left;strokeColor=none;fillColor=none;spacingLeft=4;fontSize=12;verticalAlign=top;resizable=0;rotatable=0;part=1;html=1;" vertex="1" parent="oZD-xSz8pJNhGRxbrhzZ-74">
          <mxGeometry y="50" width="240" height="70" as="geometry" />
        </mxCell>
        <mxCell id="oZD-xSz8pJNhGRxbrhzZ-76" value="&lt;font style=&quot;font-size: 16px;&quot;&gt;Articles_videos&lt;/font&gt;" style="swimlane;childLayout=stackLayout;horizontal=1;startSize=50;horizontalStack=0;rounded=1;fontSize=14;fontStyle=0;strokeWidth=2;resizeParent=0;resizeLast=1;shadow=0;dashed=0;align=center;arcSize=4;whiteSpace=wrap;html=1;" vertex="1" parent="1">
          <mxGeometry x="-630" y="1070" width="240" height="120" as="geometry" />
        </mxCell>
        <mxCell id="oZD-xSz8pJNhGRxbrhzZ-77" value="&lt;font style=&quot;font-size: 14px;&quot;&gt;id: INT [PK, UNIQUE]&lt;br style=&quot;border-color: var(--border-color);&quot;&gt;article_id: INT [FK, NOT NULL]&lt;br&gt;video_id: INT [FK, NOT NULL]&lt;/font&gt;" style="align=left;strokeColor=none;fillColor=none;spacingLeft=4;fontSize=12;verticalAlign=top;resizable=0;rotatable=0;part=1;html=1;" vertex="1" parent="oZD-xSz8pJNhGRxbrhzZ-76">
          <mxGeometry y="50" width="240" height="70" as="geometry" />
        </mxCell>
        <mxCell id="oZD-xSz8pJNhGRxbrhzZ-78" value="&lt;font style=&quot;font-size: 16px;&quot;&gt;Articles_images&lt;/font&gt;" style="swimlane;childLayout=stackLayout;horizontal=1;startSize=50;horizontalStack=0;rounded=1;fontSize=14;fontStyle=0;strokeWidth=2;resizeParent=0;resizeLast=1;shadow=0;dashed=0;align=center;arcSize=4;whiteSpace=wrap;html=1;" vertex="1" parent="1">
          <mxGeometry x="90" y="1470" width="240" height="120" as="geometry" />
        </mxCell>
        <mxCell id="oZD-xSz8pJNhGRxbrhzZ-79" value="&lt;font style=&quot;font-size: 14px;&quot;&gt;id: INT [PK, UNIQUE]&lt;br style=&quot;border-color: var(--border-color);&quot;&gt;article_id: INT [FK, NOT NULL]&lt;br&gt;image_id: INT [FK, NOT NULL]&lt;/font&gt;" style="align=left;strokeColor=none;fillColor=none;spacingLeft=4;fontSize=12;verticalAlign=top;resizable=0;rotatable=0;part=1;html=1;" vertex="1" parent="oZD-xSz8pJNhGRxbrhzZ-78">
          <mxGeometry y="50" width="240" height="70" as="geometry" />
        </mxCell>
        <mxCell id="oZD-xSz8pJNhGRxbrhzZ-80" value="&lt;font style=&quot;font-size: 16px;&quot;&gt;Roles_permissions&lt;/font&gt;" style="swimlane;childLayout=stackLayout;horizontal=1;startSize=50;horizontalStack=0;rounded=1;fontSize=14;fontStyle=0;strokeWidth=2;resizeParent=0;resizeLast=1;shadow=0;dashed=0;align=center;arcSize=4;whiteSpace=wrap;html=1;" vertex="1" parent="1">
          <mxGeometry x="1390" y="1080" width="240" height="120" as="geometry" />
        </mxCell>
        <mxCell id="oZD-xSz8pJNhGRxbrhzZ-81" value="&lt;font style=&quot;font-size: 14px;&quot;&gt;id: INT [PK, UNIQUE]&lt;br style=&quot;border-color: var(--border-color);&quot;&gt;role_id: INT [FK, NOT NULL]&lt;br&gt;permission_id: INT [FK, NOT NULL]&lt;/font&gt;" style="align=left;strokeColor=none;fillColor=none;spacingLeft=4;fontSize=12;verticalAlign=top;resizable=0;rotatable=0;part=1;html=1;" vertex="1" parent="oZD-xSz8pJNhGRxbrhzZ-80">
          <mxGeometry y="50" width="240" height="70" as="geometry" />
        </mxCell>
        <mxCell id="oZD-xSz8pJNhGRxbrhzZ-82" value="&lt;font style=&quot;font-size: 16px;&quot;&gt;News_videos&lt;/font&gt;" style="swimlane;childLayout=stackLayout;horizontal=1;startSize=50;horizontalStack=0;rounded=1;fontSize=14;fontStyle=0;strokeWidth=2;resizeParent=0;resizeLast=1;shadow=0;dashed=0;align=center;arcSize=4;whiteSpace=wrap;html=1;" vertex="1" parent="1">
          <mxGeometry x="-1080" y="840" width="240" height="120" as="geometry" />
        </mxCell>
        <mxCell id="oZD-xSz8pJNhGRxbrhzZ-83" value="&lt;font style=&quot;font-size: 14px;&quot;&gt;id: INT [PK, UNIQUE]&lt;br style=&quot;border-color: var(--border-color);&quot;&gt;new_id: INT [FK, NOT NULL]&lt;br&gt;video_id: INT [FK, NOT NULL]&lt;/font&gt;" style="align=left;strokeColor=none;fillColor=none;spacingLeft=4;fontSize=12;verticalAlign=top;resizable=0;rotatable=0;part=1;html=1;" vertex="1" parent="oZD-xSz8pJNhGRxbrhzZ-82">
          <mxGeometry y="50" width="240" height="70" as="geometry" />
        </mxCell>
        <mxCell id="oZD-xSz8pJNhGRxbrhzZ-90" value="" style="edgeStyle=entityRelationEdgeStyle;fontSize=12;html=1;endArrow=ERmany;rounded=0;entryX=1;entryY=0.25;entryDx=0;entryDy=0;" edge="1" parent="1" source="oZD-xSz8pJNhGRxbrhzZ-51" target="oZD-xSz8pJNhGRxbrhzZ-53">
          <mxGeometry width="100" height="100" relative="1" as="geometry">
            <mxPoint x="270" y="1090" as="sourcePoint" />
            <mxPoint x="370" y="990" as="targetPoint" />
          </mxGeometry>
        </mxCell>
        <mxCell id="oZD-xSz8pJNhGRxbrhzZ-91" value="" style="edgeStyle=entityRelationEdgeStyle;fontSize=12;html=1;endArrow=ERmany;rounded=0;entryX=1;entryY=0.25;entryDx=0;entryDy=0;" edge="1" parent="1" source="oZD-xSz8pJNhGRxbrhzZ-49" target="oZD-xSz8pJNhGRxbrhzZ-54">
          <mxGeometry width="100" height="100" relative="1" as="geometry">
            <mxPoint x="730" y="770" as="sourcePoint" />
            <mxPoint x="830" y="670" as="targetPoint" />
          </mxGeometry>
        </mxCell>
        <mxCell id="oZD-xSz8pJNhGRxbrhzZ-92" value="" style="edgeStyle=entityRelationEdgeStyle;fontSize=12;html=1;endArrow=ERmany;rounded=0;entryX=1;entryY=0.75;entryDx=0;entryDy=0;" edge="1" parent="1" source="oZD-xSz8pJNhGRxbrhzZ-70" target="oZD-xSz8pJNhGRxbrhzZ-54">
          <mxGeometry width="100" height="100" relative="1" as="geometry">
            <mxPoint x="580" y="710" as="sourcePoint" />
            <mxPoint x="680" y="610" as="targetPoint" />
          </mxGeometry>
        </mxCell>
        <mxCell id="oZD-xSz8pJNhGRxbrhzZ-93" value="" style="edgeStyle=entityRelationEdgeStyle;fontSize=12;html=1;endArrow=ERmany;rounded=0;" edge="1" parent="1" source="oZD-xSz8pJNhGRxbrhzZ-72" target="oZD-xSz8pJNhGRxbrhzZ-80">
          <mxGeometry width="100" height="100" relative="1" as="geometry">
            <mxPoint x="1170" y="1400" as="sourcePoint" />
            <mxPoint x="1270" y="1300" as="targetPoint" />
          </mxGeometry>
        </mxCell>
        <mxCell id="oZD-xSz8pJNhGRxbrhzZ-94" value="" style="edgeStyle=entityRelationEdgeStyle;fontSize=12;html=1;endArrow=ERmany;rounded=0;" edge="1" parent="1" source="oZD-xSz8pJNhGRxbrhzZ-70" target="oZD-xSz8pJNhGRxbrhzZ-80">
          <mxGeometry width="100" height="100" relative="1" as="geometry">
            <mxPoint x="1050" y="1390" as="sourcePoint" />
            <mxPoint x="1150" y="1290" as="targetPoint" />
          </mxGeometry>
        </mxCell>
        <mxCell id="oZD-xSz8pJNhGRxbrhzZ-95" value="" style="edgeStyle=entityRelationEdgeStyle;fontSize=12;html=1;endArrow=ERmany;rounded=0;" edge="1" parent="1" source="oZD-xSz8pJNhGRxbrhzZ-66" target="oZD-xSz8pJNhGRxbrhzZ-53">
          <mxGeometry width="100" height="100" relative="1" as="geometry">
            <mxPoint x="190" y="1000" as="sourcePoint" />
            <mxPoint x="290" y="900" as="targetPoint" />
          </mxGeometry>
        </mxCell>
        <mxCell id="oZD-xSz8pJNhGRxbrhzZ-97" value="" style="edgeStyle=entityRelationEdgeStyle;fontSize=12;html=1;endArrow=ERmandOne;startArrow=ERmandOne;rounded=0;entryX=0;entryY=0.75;entryDx=0;entryDy=0;" edge="1" parent="1" source="oZD-xSz8pJNhGRxbrhzZ-68" target="oZD-xSz8pJNhGRxbrhzZ-53">
          <mxGeometry width="100" height="100" relative="1" as="geometry">
            <mxPoint x="-80" y="960" as="sourcePoint" />
            <mxPoint x="20" y="860" as="targetPoint" />
          </mxGeometry>
        </mxCell>
        <mxCell id="oZD-xSz8pJNhGRxbrhzZ-98" value="" style="edgeStyle=entityRelationEdgeStyle;fontSize=12;html=1;endArrow=ERmany;rounded=0;exitX=1;exitY=0.5;exitDx=0;exitDy=0;" edge="1" parent="1" source="oZD-xSz8pJNhGRxbrhzZ-69" target="oZD-xSz8pJNhGRxbrhzZ-64">
          <mxGeometry width="100" height="100" relative="1" as="geometry">
            <mxPoint x="-50" y="1210" as="sourcePoint" />
            <mxPoint x="50" y="1110" as="targetPoint" />
          </mxGeometry>
        </mxCell>
        <mxCell id="oZD-xSz8pJNhGRxbrhzZ-99" value="" style="edgeStyle=entityRelationEdgeStyle;fontSize=12;html=1;endArrow=ERmany;rounded=0;" edge="1" parent="1" target="oZD-xSz8pJNhGRxbrhzZ-62">
          <mxGeometry width="100" height="100" relative="1" as="geometry">
            <mxPoint x="330" y="1112" as="sourcePoint" />
            <mxPoint x="280" y="1310" as="targetPoint" />
          </mxGeometry>
        </mxCell>
        <mxCell id="oZD-xSz8pJNhGRxbrhzZ-100" value="" style="edgeStyle=entityRelationEdgeStyle;fontSize=12;html=1;endArrow=ERmany;rounded=0;exitX=-0.002;exitY=0.664;exitDx=0;exitDy=0;entryX=1.004;entryY=0.408;entryDx=0;entryDy=0;entryPerimeter=0;exitPerimeter=0;" edge="1" parent="1" source="oZD-xSz8pJNhGRxbrhzZ-69" target="oZD-xSz8pJNhGRxbrhzZ-61">
          <mxGeometry width="100" height="100" relative="1" as="geometry">
            <mxPoint x="110" y="1440" as="sourcePoint" />
            <mxPoint x="210" y="1340" as="targetPoint" />
          </mxGeometry>
        </mxCell>
        <mxCell id="oZD-xSz8pJNhGRxbrhzZ-101" value="" style="edgeStyle=entityRelationEdgeStyle;fontSize=12;html=1;endArrow=ERmany;rounded=0;entryX=1;entryY=0;entryDx=0;entryDy=0;exitX=0;exitY=0.25;exitDx=0;exitDy=0;" edge="1" parent="1" source="oZD-xSz8pJNhGRxbrhzZ-69" target="oZD-xSz8pJNhGRxbrhzZ-59">
          <mxGeometry width="100" height="100" relative="1" as="geometry">
            <mxPoint x="90" y="1380" as="sourcePoint" />
            <mxPoint x="190" y="1280" as="targetPoint" />
          </mxGeometry>
        </mxCell>
        <mxCell id="oZD-xSz8pJNhGRxbrhzZ-102" value="" style="edgeStyle=entityRelationEdgeStyle;fontSize=12;html=1;endArrow=ERmany;rounded=0;entryX=1;entryY=0.25;entryDx=0;entryDy=0;exitX=0;exitY=0;exitDx=0;exitDy=0;" edge="1" parent="1" source="oZD-xSz8pJNhGRxbrhzZ-69" target="oZD-xSz8pJNhGRxbrhzZ-56">
          <mxGeometry width="100" height="100" relative="1" as="geometry">
            <mxPoint x="-490" y="1110" as="sourcePoint" />
            <mxPoint x="-390" y="1010" as="targetPoint" />
          </mxGeometry>
        </mxCell>
        <mxCell id="oZD-xSz8pJNhGRxbrhzZ-103" value="" style="edgeStyle=orthogonalEdgeStyle;fontSize=12;html=1;endArrow=ERmany;rounded=0;entryX=0;entryY=0.25;entryDx=0;entryDy=0;exitX=0.444;exitY=-0.003;exitDx=0;exitDy=0;exitPerimeter=0;curved=1;" edge="1" parent="1" source="oZD-xSz8pJNhGRxbrhzZ-47" target="oZD-xSz8pJNhGRxbrhzZ-56">
          <mxGeometry width="100" height="100" relative="1" as="geometry">
            <mxPoint x="-790" y="860" as="sourcePoint" />
            <mxPoint x="-690" y="760" as="targetPoint" />
          </mxGeometry>
        </mxCell>
        <mxCell id="oZD-xSz8pJNhGRxbrhzZ-104" value="" style="edgeStyle=orthogonalEdgeStyle;fontSize=12;html=1;endArrow=ERmany;rounded=0;exitX=0.626;exitY=-0.003;exitDx=0;exitDy=0;entryX=0.25;entryY=0;entryDx=0;entryDy=0;curved=1;exitPerimeter=0;" edge="1" parent="1" source="oZD-xSz8pJNhGRxbrhzZ-47" target="oZD-xSz8pJNhGRxbrhzZ-58">
          <mxGeometry width="100" height="100" relative="1" as="geometry">
            <mxPoint x="-490" y="1060" as="sourcePoint" />
            <mxPoint x="-390" y="960" as="targetPoint" />
            <Array as="points">
              <mxPoint x="-1442" y="750" />
              <mxPoint x="-260" y="750" />
            </Array>
          </mxGeometry>
        </mxCell>
        <mxCell id="oZD-xSz8pJNhGRxbrhzZ-105" value="" style="edgeStyle=orthogonalEdgeStyle;fontSize=12;html=1;endArrow=ERmany;rounded=0;exitX=0.444;exitY=1.047;exitDx=0;exitDy=0;exitPerimeter=0;entryX=0.5;entryY=1;entryDx=0;entryDy=0;curved=1;" edge="1" parent="1" source="oZD-xSz8pJNhGRxbrhzZ-48" target="oZD-xSz8pJNhGRxbrhzZ-61">
          <mxGeometry width="100" height="100" relative="1" as="geometry">
            <mxPoint x="-660" y="1360" as="sourcePoint" />
            <mxPoint x="-560" y="1260" as="targetPoint" />
            <Array as="points">
              <mxPoint x="-1482" y="1190" />
              <mxPoint x="-729" y="1190" />
              <mxPoint x="-729" y="1500" />
              <mxPoint x="-210" y="1500" />
            </Array>
          </mxGeometry>
        </mxCell>
        <mxCell id="oZD-xSz8pJNhGRxbrhzZ-106" value="" style="edgeStyle=orthogonalEdgeStyle;fontSize=12;html=1;endArrow=ERmany;rounded=0;exitX=0.25;exitY=1;exitDx=0;exitDy=0;entryX=0.5;entryY=1;entryDx=0;entryDy=0;curved=1;" edge="1" parent="1" source="oZD-xSz8pJNhGRxbrhzZ-48" target="oZD-xSz8pJNhGRxbrhzZ-63">
          <mxGeometry width="100" height="100" relative="1" as="geometry">
            <mxPoint x="-880" y="1490" as="sourcePoint" />
            <mxPoint x="-780" y="1390" as="targetPoint" />
            <Array as="points">
              <mxPoint x="-1525" y="1240" />
              <mxPoint x="-800" y="1240" />
              <mxPoint x="-800" y="1680" />
              <mxPoint x="682" y="1680" />
            </Array>
          </mxGeometry>
        </mxCell>
        <mxCell id="oZD-xSz8pJNhGRxbrhzZ-107" value="" style="edgeStyle=entityRelationEdgeStyle;fontSize=12;html=1;endArrow=ERmany;rounded=0;exitX=0;exitY=0.25;exitDx=0;exitDy=0;entryX=1;entryY=0.25;entryDx=0;entryDy=0;" edge="1" parent="1" source="oZD-xSz8pJNhGRxbrhzZ-59" target="oZD-xSz8pJNhGRxbrhzZ-76">
          <mxGeometry width="100" height="100" relative="1" as="geometry">
            <mxPoint x="-600" y="1350" as="sourcePoint" />
            <mxPoint x="-500" y="1250" as="targetPoint" />
          </mxGeometry>
        </mxCell>
        <mxCell id="oZD-xSz8pJNhGRxbrhzZ-108" value="" style="edgeStyle=entityRelationEdgeStyle;fontSize=12;html=1;endArrow=ERmany;rounded=0;entryX=1;entryY=0.5;entryDx=0;entryDy=0;exitX=0;exitY=0.25;exitDx=0;exitDy=0;" edge="1" parent="1" source="oZD-xSz8pJNhGRxbrhzZ-61" target="oZD-xSz8pJNhGRxbrhzZ-77">
          <mxGeometry width="100" height="100" relative="1" as="geometry">
            <mxPoint x="-1060" y="1580" as="sourcePoint" />
            <mxPoint x="-960" y="1480" as="targetPoint" />
          </mxGeometry>
        </mxCell>
        <mxCell id="oZD-xSz8pJNhGRxbrhzZ-109" value="" style="edgeStyle=orthogonalEdgeStyle;fontSize=12;html=1;endArrow=ERmany;rounded=0;entryX=1;entryY=0.5;entryDx=0;entryDy=0;exitX=0;exitY=0.5;exitDx=0;exitDy=0;curved=1;" edge="1" parent="1" source="oZD-xSz8pJNhGRxbrhzZ-61" target="oZD-xSz8pJNhGRxbrhzZ-83">
          <mxGeometry width="100" height="100" relative="1" as="geometry">
            <mxPoint x="-1100" y="1430" as="sourcePoint" />
            <mxPoint x="-1000" y="1330" as="targetPoint" />
            <Array as="points">
              <mxPoint x="-720" y="1400" />
              <mxPoint x="-720" y="925" />
            </Array>
          </mxGeometry>
        </mxCell>
        <mxCell id="oZD-xSz8pJNhGRxbrhzZ-110" value="" style="edgeStyle=entityRelationEdgeStyle;fontSize=12;html=1;endArrow=ERmany;rounded=0;entryX=1;entryY=0;entryDx=0;entryDy=0;exitX=0;exitY=0.5;exitDx=0;exitDy=0;" edge="1" parent="1" source="oZD-xSz8pJNhGRxbrhzZ-56" target="oZD-xSz8pJNhGRxbrhzZ-83">
          <mxGeometry width="100" height="100" relative="1" as="geometry">
            <mxPoint x="-690" y="770" as="sourcePoint" />
            <mxPoint x="-590" y="670" as="targetPoint" />
          </mxGeometry>
        </mxCell>
        <mxCell id="oZD-xSz8pJNhGRxbrhzZ-111" value="" style="edgeStyle=entityRelationEdgeStyle;fontSize=12;html=1;endArrow=ERmany;rounded=0;entryX=0;entryY=0.25;entryDx=0;entryDy=0;exitX=1;exitY=0.5;exitDx=0;exitDy=0;" edge="1" parent="1" source="oZD-xSz8pJNhGRxbrhzZ-59" target="oZD-xSz8pJNhGRxbrhzZ-79">
          <mxGeometry width="100" height="100" relative="1" as="geometry">
            <mxPoint x="-130" y="1220" as="sourcePoint" />
            <mxPoint x="-30" y="1120" as="targetPoint" />
          </mxGeometry>
        </mxCell>
        <mxCell id="oZD-xSz8pJNhGRxbrhzZ-112" value="" style="edgeStyle=entityRelationEdgeStyle;fontSize=12;html=1;endArrow=ERmany;rounded=0;entryX=1;entryY=0.25;entryDx=0;entryDy=0;exitX=0;exitY=0.5;exitDx=0;exitDy=0;" edge="1" parent="1" source="oZD-xSz8pJNhGRxbrhzZ-63" target="oZD-xSz8pJNhGRxbrhzZ-79">
          <mxGeometry width="100" height="100" relative="1" as="geometry">
            <mxPoint x="140" y="1540" as="sourcePoint" />
            <mxPoint x="240" y="1440" as="targetPoint" />
          </mxGeometry>
        </mxCell>
        <mxCell id="oZD-xSz8pJNhGRxbrhzZ-113" value="" style="edgeStyle=entityRelationEdgeStyle;fontSize=12;html=1;endArrow=ERmany;rounded=0;entryX=0;entryY=0.25;entryDx=0;entryDy=0;exitX=1;exitY=0.25;exitDx=0;exitDy=0;" edge="1" parent="1" source="oZD-xSz8pJNhGRxbrhzZ-55" target="oZD-xSz8pJNhGRxbrhzZ-75">
          <mxGeometry width="100" height="100" relative="1" as="geometry">
            <mxPoint x="-210" y="760" as="sourcePoint" />
            <mxPoint x="-110" y="660" as="targetPoint" />
          </mxGeometry>
        </mxCell>
        <mxCell id="oZD-xSz8pJNhGRxbrhzZ-114" value="" style="edgeStyle=entityRelationEdgeStyle;fontSize=12;html=1;endArrow=ERmany;rounded=0;entryX=1;entryY=0.25;entryDx=0;entryDy=0;exitX=0;exitY=0;exitDx=0;exitDy=0;" edge="1" parent="1" source="oZD-xSz8pJNhGRxbrhzZ-63" target="oZD-xSz8pJNhGRxbrhzZ-75">
          <mxGeometry width="100" height="100" relative="1" as="geometry">
            <mxPoint x="280" y="1140" as="sourcePoint" />
            <mxPoint x="380" y="1040" as="targetPoint" />
          </mxGeometry>
        </mxCell>
      </root>
    </mxGraphModel>
  </diagram>
</mxfile>
